Coordinates
version=1
nRows=19
nColumns=63
inDegrees=yes

Units are S.I. units (second, meters, Newtons, ...)
If the header above contains a line with 'inDegrees', this indicates whether rotational values are in degrees (yes) or radians (no).

endheader
time	pelvis_tilt	pelvis_list	pelvis_rotation	pelvis_tx	pelvis_ty	pelvis_tz	hip_flexion_r	hip_adduction_r	hip_rotation_r	knee_angle_r	knee_angle_r_beta	ankle_angle_r	subtalar_angle_r	mtp_angle_r	hip_flexion_l	hip_adduction_l	hip_rotation_l	knee_angle_l	knee_angle_l_beta	ankle_angle_l	subtalar_angle_l	mtp_angle_l	L5_S1_Flex_Ext	L5_S1_Lat_Bending	L5_S1_axial_rotation	L4_L5_Flex_Ext	L4_L5_Lat_Bending	L4_L5_axial_rotation	L3_L4_Flex_Ext	L3_L4_Lat_Bending	L3_L4_axial_rotation	L2_L3_Flex_Ext	L2_L3_Lat_Bending	L2_L3_axial_rotation	L1_L2_Flex_Ext	L1_L2_Lat_Bending	L1_L2_axial_rotation	L1_T12_Flex_Ext	L1_T12_Lat_Bending	L1_T12_axial_rotation	Abs_r3	Abs_r2	Abs_r1	Abs_t1	Abs_t2	neck_flexion	neck_bending	neck_rotation	arm_flex_r	arm_add_r	arm_rot_r	elbow_flex_r	pro_sup_r	wrist_flex_r	wrist_dev_r	arm_flex_l	arm_add_l	arm_rot_l	elbow_flex_l	pro_sup_l	wrist_flex_l	wrist_dev_l
6.195122	-0.427724	-2.398435	100.386824	0.262543	0.671478	0.954964	2.116847	-0.121089	-15.254693	6.470170	0.112926	26.714628	17.153376	0.000000	4.400128	1.223729	-3.773757	7.860802	0.137197	28.476306	6.609712	0.000000	-0.326394	0.212821	-0.656328	-0.606147	0.283052	-0.697348	-0.536233	0.517453	-0.697348	-0.373036	0.517453	-0.574287	-0.303090	0.433985	-0.533266	-0.186502	0.329660	-0.492246	-2.331401	2.407474	-3.650297	0.000000	0.000000	11.860491	-1.794060	5.931236	5.543041	-17.641919	67.560642	22.539989	46.040134	-6.803048	-7.695589	-6.227809	-18.215678	41.453137	32.240613	77.724926	-3.302710	2.207034
6.219512	-0.508151	-2.457980	100.228348	0.262571	0.671578	0.955080	2.205778	-0.239472	-15.134518	6.531856	0.114002	26.710035	17.164521	0.000000	4.457231	1.333272	-4.058770	7.869152	0.137343	28.430786	6.634574	0.000000	-0.321508	0.205572	-0.646783	-0.597072	0.273411	-0.687207	-0.528205	0.499828	-0.687207	-0.367451	0.499828	-0.565935	-0.298552	0.419203	-0.525511	-0.183709	0.318431	-0.485087	-2.296496	2.325472	-3.597213	0.000000	0.000000	11.838606	-1.953823	6.024611	5.618478	-17.447023	68.264232	22.247082	45.174280	-6.310913	-7.809526	-6.178585	-18.292501	42.013440	32.225374	77.308225	-3.951380	1.713286
6.243902	-0.596061	-2.518744	100.104845	0.262605	0.671688	0.955099	2.281184	-0.358754	-15.043621	6.579037	0.114826	26.709944	17.178414	0.000000	4.511950	1.448422	-4.232366	7.864010	0.137253	28.391961	6.596889	0.000000	-0.317186	0.195176	-0.654150	-0.589046	0.259585	-0.695035	-0.521105	0.474552	-0.695035	-0.362512	0.474552	-0.572382	-0.294539	0.398004	-0.531497	-0.181240	0.302328	-0.490613	-2.265629	2.207875	-3.638189	0.000000	0.000000	11.820551	-2.111328	6.172462	5.778619	-17.198014	69.414803	21.882769	43.887250	-5.722804	-7.873574	-6.308161	-18.308346	41.914924	32.269113	77.213673	-4.407103	1.366790
6.268293	-0.692771	-2.576379	99.999851	0.262679	0.671809	0.955035	2.340850	-0.477300	-14.932465	6.609046	0.115350	26.697146	17.147206	0.000000	4.555982	1.560148	-4.428027	7.840676	0.136846	28.388459	6.670129	0.000000	-0.314294	0.181304	-0.674507	-0.583676	0.241135	-0.716664	-0.516354	0.440823	-0.716664	-0.359207	0.440823	-0.590194	-0.291854	0.369716	-0.548037	-0.179588	0.280840	-0.505880	-2.244973	2.050950	-3.751407	0.000000	0.000000	11.796191	-2.268941	6.383509	6.056864	-16.927794	71.145300	21.440451	42.095428	-5.165808	-8.016375	-6.570101	-18.279278	41.396541	32.360032	77.407195	-4.883784	1.125072
6.292683	-0.786373	-2.635281	99.920680	0.262749	0.671908	0.954898	2.388887	-0.586500	-14.823165	6.618169	0.115509	26.662747	17.091503	0.000000	4.590591	1.673778	-4.412814	7.789250	0.135948	28.365832	6.537823	0.000000	-0.312348	0.165990	-0.701158	-0.580062	0.220766	-0.744981	-0.513157	0.403587	-0.744981	-0.356983	0.403587	-0.613513	-0.290046	0.338486	-0.569691	-0.178476	0.257118	-0.525869	-2.231071	1.877707	-3.899631	0.000000	0.000000	11.783746	-2.456796	6.638657	6.281821	-16.645696	72.530707	21.056087	40.740414	-4.656274	-8.096500	-6.911569	-18.204904	40.603230	32.461448	77.857287	-5.405131	0.962257
6.317073	-0.876858	-2.692010	99.846300	0.262847	0.671984	0.954691	2.429286	-0.686857	-14.704077	6.620468	0.115549	26.612723	17.017970	0.000000	4.608817	1.779532	-4.332195	7.710012	0.134565	28.345271	6.375370	0.000000	-0.311575	0.149193	-0.729445	-0.578626	0.198427	-0.775036	-0.511887	0.362749	-0.775036	-0.356099	0.362749	-0.638265	-0.289329	0.304235	-0.592674	-0.178034	0.231101	-0.547084	-2.225551	1.687705	-4.056956	0.000000	0.000000	11.778757	-2.659218	6.931818	6.518931	-16.408747	73.997504	20.738675	39.373931	-4.332513	-8.289331	-7.310924	-18.099761	39.630899	32.569373	78.486324	-5.973962	0.870056
6.341463	-0.945729	-2.754085	99.825965	0.262880	0.672015	0.954437	2.465424	-0.764515	-14.647616	6.611953	0.115400	26.549283	16.955683	0.000000	4.636184	1.866744	-4.099041	7.629292	0.133156	28.320572	6.116740	0.000000	-0.310047	0.133834	-0.761299	-0.575789	0.177999	-0.808880	-0.509377	0.325404	-0.808880	-0.354353	0.325404	-0.666137	-0.287910	0.272915	-0.618555	-0.177161	0.207309	-0.570974	-2.214636	1.513959	-4.234116	0.000000	0.000000	11.780176	-2.896608	7.227138	6.595890	-16.207221	74.704914	20.621625	38.819444	-4.190237	-8.444521	-7.709053	-17.972310	38.644141	32.647431	79.307293	-6.544047	0.810107
6.365854	-0.992931	-2.811123	99.813669	0.262903	0.672015	0.954134	2.492715	-0.817129	-14.598588	6.599393	0.115181	26.485574	16.894945	0.000000	4.645828	1.931315	-3.761468	7.520018	0.131249	28.277606	5.764188	0.000000	-0.309315	0.120273	-0.785386	-0.574429	0.159963	-0.834473	-0.508174	0.292431	-0.834473	-0.353516	0.292431	-0.687213	-0.287230	0.245260	-0.638126	-0.176743	0.186302	-0.589040	-2.209406	1.360549	-4.368084	0.000000	0.000000	11.783126	-3.149446	7.497096	6.487669	-16.061116	74.581211	20.717920	39.137746	-4.272494	-8.606698	-8.058946	-17.842641	37.799046	32.692953	80.272559	-7.120185	0.824986
6.390244	-1.019478	-2.871021	99.832160	0.262882	0.671964	0.953816	2.517721	-0.849068	-14.575997	6.581098	0.114862	26.431595	16.834386	0.000000	4.659713	1.980281	-3.293717	7.406304	0.129264	28.222240	5.299225	0.000000	-0.308241	0.108510	-0.807692	-0.572434	0.144318	-0.858173	-0.506408	0.263831	-0.858173	-0.352288	0.263831	-0.706730	-0.286232	0.221273	-0.656250	-0.176129	0.168082	-0.605769	-2.201732	1.227484	-4.492139	0.000000	0.000000	11.788628	-3.415040	7.740342	6.225010	-15.956080	73.760812	20.996705	40.167473	-4.550600	-8.799317	-8.377467	-17.706237	37.025382	32.713946	81.393419	-7.642410	0.912402
6.414634	-1.024242	-2.930170	99.860070	0.262830	0.671862	0.953513	2.546808	-0.860879	-14.565512	6.570853	0.114683	26.394660	16.776512	0.000000	4.670453	2.011869	-2.736754	7.279866	0.127058	28.149067	4.737548	0.000000	-0.307520	0.099332	-0.821678	-0.571095	0.132111	-0.873033	-0.505225	0.241515	-0.873033	-0.351465	0.241515	-0.718968	-0.285563	0.202558	-0.667613	-0.175717	0.153865	-0.616259	-2.196585	1.123662	-4.569927	0.000000	0.000000	11.801693	-3.699273	7.931413	5.810060	-15.890059	72.233700	21.429756	41.852949	-4.956984	-8.973895	-8.621195	-17.583253	36.474298	32.700101	82.545325	-8.123367	1.065907
6.439024	-1.002303	-2.984111	99.900327	0.262744	0.671706	0.953261	2.575716	-0.846968	-14.578164	6.563748	0.114559	26.371817	16.733152	0.000000	4.686157	2.015258	-2.179896	7.165327	0.125059	28.082750	4.190691	0.000000	-0.307757	0.094007	-0.829895	-0.571535	0.125030	-0.881763	-0.505614	0.228569	-0.881763	-0.351735	0.228569	-0.726158	-0.285783	0.191700	-0.674289	-0.175852	0.145617	-0.622421	-2.198277	1.063430	-4.615625	0.000000	0.000000	11.821466	-3.996497	8.080831	5.262150	-15.861856	69.986601	21.981767	44.146925	-5.361241	-9.040943	-8.793827	-17.469085	36.145504	32.652565	83.622516	-8.605461	1.224862
6.463415	-0.960724	-3.040558	99.971102	0.262610	0.671480	0.953071	2.615347	-0.817536	-14.637476	6.569700	0.114663	26.377127	16.703088	0.000000	4.719658	1.999576	-1.617135	7.073549	0.123457	28.021514	3.668394	0.000000	-0.307113	0.091616	-0.840952	-0.570339	0.121850	-0.893511	-0.504555	0.222756	-0.893511	-0.350999	0.222756	-0.735833	-0.285185	0.186824	-0.683273	-0.175484	0.141914	-0.630714	-2.193675	1.036382	-4.677123	0.000000	0.000000	11.847061	-4.300127	8.188343	4.635271	-15.854754	67.244415	22.577742	46.855355	-5.748416	-9.009233	-8.973528	-17.342325	35.762091	32.613551	84.718442	-9.042349	1.378225
6.487805	-0.897382	-3.080019	100.029932	0.262467	0.671222	0.952940	2.643289	-0.765075	-14.718509	6.571259	0.114690	26.391560	16.721110	0.000000	4.739204	1.969248	-0.936752	6.985923	0.121927	27.933617	2.957410	0.000000	-0.308152	0.093465	-0.843100	-0.572269	0.124308	-0.895794	-0.506263	0.227250	-0.895794	-0.352187	0.227250	-0.737712	-0.286150	0.190593	-0.685019	-0.176078	0.144777	-0.632325	-2.201097	1.057290	-4.689069	0.000000	0.000000	11.876576	-4.624217	8.246196	3.906947	-15.872446	63.863644	23.244611	50.071075	-6.127440	-8.736612	-9.113068	-17.222891	35.460523	32.594344	85.544338	-9.394784	1.599870
6.512195	-0.818139	-3.101135	100.078801	0.262343	0.670942	0.952869	2.658287	-0.690741	-14.773476	6.565289	0.114586	26.411192	16.724616	0.000000	4.745750	1.913537	-0.367011	6.916329	0.120713	27.868394	2.368796	0.000000	-0.310999	0.098591	-0.840661	-0.577557	0.131126	-0.893202	-0.510941	0.239714	-0.893202	-0.355441	0.239714	-0.735578	-0.288794	0.201047	-0.683037	-0.177705	0.152718	-0.630495	-2.221436	1.115282	-4.675502	0.000000	0.000000	11.927346	-4.945937	8.265923	3.167545	-15.914650	60.283165	23.897157	53.397623	-6.473175	-8.353352	-9.243730	-17.098298	35.155469	32.588352	86.136875	-9.736439	1.767077
6.536585	-0.726965	-3.115862	100.097591	0.262242	0.670646	0.952870	2.685018	-0.605750	-14.803045	6.574354	0.114744	26.434636	16.730565	0.000000	4.752532	1.837490	0.026403	6.873567	0.119966	27.831537	1.953068	0.000000	-0.314122	0.106859	-0.828573	-0.583356	0.142122	-0.880358	-0.516071	0.259816	-0.880358	-0.359010	0.259816	-0.725001	-0.291694	0.217906	-0.673215	-0.179489	0.165524	-0.621429	-2.243742	1.208805	-4.608273	0.000000	0.000000	12.031283	-5.250842	8.234382	2.426319	-15.975954	56.533426	24.500596	56.847611	-6.737230	-7.906204	-9.320789	-16.981472	35.035056	32.553219	86.391312	-10.132359	1.732110
6.560976	-0.626712	-3.128249	100.106055	0.262154	0.670359	0.952922	2.716738	-0.510811	-14.825033	6.584141	0.114915	26.452918	16.739304	0.000000	4.768962	1.741116	0.211011	6.872684	0.119951	27.829288	1.778867	0.000000	-0.316029	0.117551	-0.819489	-0.586898	0.156343	-0.870707	-0.519205	0.285814	-0.870707	-0.361190	0.285814	-0.717053	-0.293465	0.239710	-0.665835	-0.180579	0.182087	-0.614617	-2.257366	1.329763	-4.557753	0.000000	0.000000	12.170596	-5.492743	8.190446	1.846465	-16.055817	53.548307	24.985008	59.535720	-6.949200	-7.545491	-9.441972	-16.845739	34.698735	32.525712	86.703283	-10.441216	1.636466
6.585366	-0.518481	-3.137362	100.098360	0.262053	0.670109	0.953022	2.753359	-0.409971	-14.847340	6.597195	0.115143	26.462076	16.766064	0.000000	4.792806	1.625395	0.149519	6.913193	0.120658	27.871330	1.896330	0.000000	-0.316832	0.131413	-0.806739	-0.588389	0.174779	-0.857160	-0.520524	0.319517	-0.857160	-0.362108	0.319517	-0.705896	-0.294211	0.267977	-0.655475	-0.181038	0.203558	-0.605054	-2.263102	1.486567	-4.486838	0.000000	0.000000	12.338869	-5.662303	8.124559	1.362230	-16.158884	50.991152	25.378735	61.764062	-7.106250	-7.204895	-9.482449	-16.753483	34.636417	32.483002	86.758963	-10.703027	1.499629
6.609756	-0.397101	-3.148206	100.085039	0.261923	0.669894	0.953158	2.798893	-0.299228	-14.884473	6.612942	0.115418	26.461983	16.818568	0.000000	4.828811	1.487744	-0.120291	6.990508	0.122007	27.965517	2.286754	0.000000	-0.315893	0.148856	-0.796495	-0.586645	0.197979	-0.846276	-0.518980	0.361929	-0.846276	-0.361034	0.361929	-0.696933	-0.293338	0.303547	-0.647152	-0.180501	0.230578	-0.597371	-2.256392	1.683890	-4.429865	0.000000	0.000000	12.534019	-5.764341	8.055663	1.006031	-16.256310	48.965002	25.620807	63.480086	-7.208542	-6.869648	-9.479100	-16.685733	34.761319	32.418276	86.586779	-10.968413	1.279579
6.634146	-0.272165	-3.164187	100.048394	0.261783	0.669709	0.953338	2.860252	-0.188250	-14.903186	6.636431	0.115828	26.453170	16.871240	0.000000	4.877286	1.340238	-0.576928	7.095738	0.123844	28.105366	2.895894	0.000000	-0.313436	0.168796	-0.785517	-0.582082	0.224499	-0.834611	-0.514944	0.410412	-0.834611	-0.358226	0.410412	-0.687327	-0.291057	0.344210	-0.638232	-0.179097	0.261466	-0.589138	-2.238843	1.909459	-4.368808	0.000000	0.000000	12.737806	-5.781648	8.030779	0.811393	-16.332459	47.693576	25.675867	64.453104	-7.236179	-6.564353	-9.418510	-16.645241	35.060114	32.337129	86.359003	-11.148709	1.081356
